<svg width="15" height="20" viewBox="0 0 15 20" fill="none" xmlns="http://www.w3.org/2000/svg">
<path id="Vector" fill-rule="evenodd" clip-rule="evenodd" d="M13.125 7.49897C13.1276 8.70424 12.7404 9.87805 12.0213 10.8452L7.5 16.874L2.97875 10.8452C2.44938 10.13 2.09724 9.29944 1.95124 8.4217C1.80524 7.54396 1.86955 6.64411 2.13889 5.79605C2.40824 4.948 2.87492 4.17594 3.50062 3.54329C4.12632 2.91064 4.89318 2.43546 5.73821 2.15677C6.58324 1.87808 7.48232 1.80383 8.36162 1.94013C9.24092 2.07642 10.0753 2.41938 10.7963 2.94081C11.5173 3.46225 12.1044 4.14729 12.5092 4.93968C12.914 5.73206 13.125 6.60917 13.125 7.49897ZM15 7.49897C15 9.17397 14.4513 10.719 13.525 11.9665L8.67125 18.4365L7.5 19.999L6.3275 18.4365L1.475 11.9665C0.768358 11.0133 0.297969 9.90597 0.102483 8.73561C-0.0930034 7.56524 -0.00800762 6.3652 0.350487 5.23407C0.708981 4.10294 1.33074 3.07301 2.16468 2.22891C2.99863 1.38481 4.02095 0.750619 5.14765 0.378452C6.27436 0.00628609 7.47329 -0.0932365 8.64593 0.0880618C9.81858 0.26936 10.9315 0.726305 11.8932 1.42135C12.8549 2.1164 13.638 3.02971 14.178 4.08625C14.7181 5.14279 14.9998 6.31239 15 7.49897ZM7.5 9.99897C8.16304 9.99897 8.79893 9.73558 9.26777 9.26674C9.73661 8.7979 10 8.16201 10 7.49897C10 6.83593 9.73661 6.20005 9.26777 5.73121C8.79893 5.26236 8.16304 4.99897 7.5 4.99897C6.83696 4.99897 6.20107 5.26236 5.73223 5.73121C5.26339 6.20005 5 6.83593 5 7.49897C5 8.16201 5.26339 8.7979 5.73223 9.26674C6.20107 9.73558 6.83696 9.99897 7.5 9.99897Z" fill="#FEF000"/>
</svg>
