<svg width="20" height="19" viewBox="0 0 20 19" fill="none" xmlns="http://www.w3.org/2000/svg">
<path id="Vector" d="M17 2.76192C16.0832 1.88299 14.9912 1.18611 13.7876 0.711926C12.5841 0.237742 11.2931 -0.00425205 9.99 5.65372e-05C4.53 5.65372e-05 0.0800002 4.22352 0.0800002 9.40558C0.0800002 11.0665 0.54 12.68 1.4 14.1036L0 18.9819L5.25 17.6722C6.7 18.422 8.33 18.8206 9.99 18.8206C15.45 18.8206 19.9 14.5971 19.9 9.41507C19.9 6.89997 18.87 4.53673 17 2.76192ZM9.99 17.2261C8.51 17.2261 7.06 16.8465 5.79 16.1347L5.49 15.9638L2.37 16.7421L3.2 13.8568L3 13.5626C2.17775 12.3164 1.74114 10.876 1.74 9.40558C1.74 5.09669 5.44 1.58504 9.98 1.58504C12.18 1.58504 14.25 2.40126 15.8 3.88185C16.5675 4.60692 17.1757 5.46936 17.5894 6.41918C18.0031 7.369 18.214 8.3873 18.21 9.41507C18.23 13.724 14.53 17.2261 9.99 17.2261ZM14.51 11.3797C14.26 11.2658 13.04 10.6963 12.82 10.6109C12.59 10.535 12.43 10.497 12.26 10.7248C12.09 10.9621 11.62 11.4936 11.48 11.6454C11.34 11.8068 11.19 11.8258 10.94 11.7024C10.69 11.5885 9.89 11.3322 8.95 10.535C8.21 9.9086 7.72 9.13983 7.57 8.90256C7.43 8.66529 7.55 8.5419 7.68 8.41852C7.79 8.31412 7.93 8.14328 8.05 8.01041C8.17 7.87754 8.22 7.77314 8.3 7.62128C8.38 7.45994 8.34 7.32706 8.28 7.21317C8.22 7.09928 7.72 5.94139 7.52 5.46684C7.32 5.01127 7.11 5.06822 6.96 5.05873H6.48C6.31 5.05873 6.05 5.11567 5.82 5.35295C5.6 5.59022 4.96 6.15968 4.96 7.31757C4.96 8.47547 5.85 9.5954 5.97 9.74725C6.09 9.9086 7.72 12.2813 10.2 13.2969C10.79 13.5436 11.25 13.686 11.61 13.7904C12.2 13.9707 12.74 13.9422 13.17 13.8853C13.65 13.8189 14.64 13.3158 14.84 12.7654C15.05 12.2149 15.05 11.7498 14.98 11.6454C14.91 11.541 14.76 11.4936 14.51 11.3797Z" fill="#FEF000"/>
</svg>
