<svg width="21" height="26" viewBox="0 0 21 26" fill="none" xmlns="http://www.w3.org/2000/svg">
<path id="Vector" d="M17.9397 3.67335C16.9722 2.50437 15.8198 1.57752 14.5498 0.946861C13.2797 0.316197 11.9174 -0.00565523 10.5422 7.51945e-05C4.7804 7.51945e-05 0.0844223 5.61729 0.0844223 12.5094C0.0844223 14.7184 0.569849 16.8643 1.47739 18.7578L0 25.246L5.5402 23.504C7.07035 24.5012 8.79045 25.0314 10.5422 25.0314C16.304 25.0314 21 19.4142 21 12.522C21 9.17696 19.9131 6.03385 17.9397 3.67335ZM10.5422 22.9107C8.9804 22.9107 7.45025 22.4058 6.11005 21.4591L5.79347 21.2319L2.501 22.267L3.37688 18.4296L3.16583 18.0383C2.29812 16.3808 1.83738 14.465 1.83618 12.5094C1.83618 6.7786 5.7407 2.10811 10.5317 2.10811C12.8533 2.10811 15.0377 3.19368 16.6734 5.16286C17.4833 6.12721 18.1251 7.27426 18.5617 8.53751C18.9982 9.80077 19.2208 11.1551 19.2166 12.522C19.2377 18.2529 15.3332 22.9107 10.5422 22.9107ZM15.3121 15.135C15.0482 14.9835 13.7608 14.2261 13.5286 14.1125C13.2859 14.0116 13.1171 13.9611 12.9377 14.264C12.7583 14.5796 12.2623 15.2865 12.1146 15.4884C11.9668 15.703 11.8085 15.7283 11.5447 15.5642C11.2809 15.4127 10.4367 15.0719 9.44472 14.0116C8.66382 13.1784 8.14673 12.156 7.98844 11.8404C7.8407 11.5248 7.96734 11.3607 8.10452 11.1966C8.2206 11.0578 8.36834 10.8306 8.49497 10.6538C8.62161 10.4771 8.67437 10.3383 8.75879 10.1363C8.84321 9.92171 8.801 9.74499 8.73769 9.59352C8.67437 9.44204 8.14673 7.90204 7.93568 7.2709C7.72462 6.66499 7.50301 6.74073 7.34472 6.72811H6.83819C6.65879 6.72811 6.38442 6.80385 6.14171 7.11942C5.90955 7.43499 5.23417 8.19237 5.23417 9.73237C5.23417 11.2724 6.17337 12.7619 6.3 12.9638C6.42663 13.1784 8.14673 16.3342 10.7638 17.6848C11.3864 18.013 11.8719 18.2024 12.2518 18.3412C12.8744 18.5811 13.4442 18.5432 13.898 18.4675C14.4045 18.3791 15.4492 17.7101 15.6603 16.9779C15.8819 16.2458 15.8819 15.6273 15.808 15.4884C15.7342 15.3496 15.5759 15.2865 15.3121 15.135Z" fill="white"/>
</svg>
